<?xml version="1.0" encoding="utf-8"?>
<!-- Generator: Adobe Illustrator 13.0.1, SVG Export Plug-In . SVG Version: 6.00 Build 14948)  -->
<svg version="1.2" baseProfile="tiny" xmlns="http://www.w3.org/2000/svg" xmlns:xlink="http://www.w3.org/1999/xlink" x="0px"
	 y="0px" width="937.179px" height="958.976px" viewBox="0 0 937.179 958.976" xml:space="preserve">
<g id="Layer_1">
	<circle fill="#FFFFFF" cx="851.282" cy="373.077" r="85.897"/>
</g>
<g id="Layer_2">
	<path d="M783.787,355.283L146.14,116.03c-7.214,15.356-20.001,27.566-35.762,34.03l161.208,652.255
		c3.818-0.666,7.739-1.033,11.748-1.033c16.87,0,32.292,6.161,44.172,16.339l465.96-409.416
		c-7.206-10.787-11.413-23.747-11.413-37.693C782.052,365.273,782.665,360.181,783.787,355.283z M850,284.615
		c-1.188,0-2.363,0.042-3.539,0.089V106.727c0-5.683-4.605-10.291-10.289-10.291H171.128c0.423-3.456,0.667-6.968,0.667-10.539
		C171.795,38.458,133.337,0,85.897,0S0,38.458,0,85.897c0,43.631,32.538,79.638,74.667,85.143v686.9
		c0,5.684,4.607,10.291,10.291,10.291h112.623c-0.089,1.604-0.144,3.219-0.144,4.846c0,47.44,38.457,85.898,85.897,85.898
		s85.897-38.458,85.897-85.898c0-1.627-0.055-3.241-0.144-4.846h467.085c5.684,0,10.289-4.607,10.289-10.291v-401.62
		c1.176,0.047,2.352,0.089,3.539,0.089c47.439,0,85.896-38.458,85.896-85.897S897.44,284.615,850,284.615z M850,438.462
		c-17.094,0-32.7-6.326-44.642-16.747L339.523,831.022c7.418,10.888,11.759,24.04,11.759,38.208
		c0,37.527-30.422,67.949-67.949,67.949s-67.948-30.422-67.948-67.949c0-27.172,15.955-50.609,39.002-61.479L92.958,154.601
		c-2.736,0.335-5.516,0.528-8.342,0.528c-37.527,0-67.949-30.422-67.949-67.95c0-37.527,30.421-67.948,67.949-67.948
		s67.949,30.421,67.949,67.948c0,3.977-0.361,7.866-1.017,11.655l638.551,239.591c11.457-21.344,33.98-35.861,59.901-35.861
		c37.527,0,67.949,30.421,67.949,67.948C917.95,408.04,887.528,438.462,850,438.462z"/>
</g>
</svg>
